<?xml version="1.0" encoding="UTF-8" standalone="no"?>
<!DOCTYPE svg PUBLIC "-//W3C//DTD SVG 1.1//EN" "http://www.w3.org/Graphics/SVG/1.1/DTD/svg11.dtd">
<svg width="100%" height="100%" viewBox="0 0 5054 7086" version="1.1" xmlns="http://www.w3.org/2000/svg" xmlns:xlink="http://www.w3.org/1999/xlink" xml:space="preserve" xmlns:serif="http://www.serif.com/" style="fill-rule:evenodd;clip-rule:evenodd;stroke-linejoin:round;stroke-miterlimit:2;">
    <g transform="matrix(4.16667,0,0,4.16667,-4511.9,-710.872)">
        <path d="M1489.21,1688.17C1551.77,1694.46 1607.86,1714.4 1643.13,1771.73C1667.12,1810.73 1655.39,1850.89 1612.41,1864.6C1572.55,1877.32 1532.71,1871.08 1497.58,1847.19C1478.21,1834.02 1478.62,1820.74 1502.29,1811.55C1519.91,1804.72 1540.48,1804.61 1559.22,1784.83C1525.76,1764.39 1491.04,1761.38 1456,1763.11C1413.29,1765.22 1371.02,1764.49 1328.39,1759.73C1171.1,1742.16 1063.76,1585.02 1085.7,1427.83C1093.18,1374.2 1126.46,1335.04 1178.1,1317.41C1235.97,1297.67 1290.22,1309.25 1338.2,1347.84C1370.4,1373.75 1395.98,1406.64 1407.58,1444.9C1441.71,1557.57 1505.55,1627.14 1505.55,1627.14C1507.62,1634.46 1512.02,1642.87 1503.57,1647.93C1495.63,1652.69 1488.91,1646.01 1483.02,1641.25C1455.58,1619.06 1434.18,1591.77 1415.31,1562.11C1389.67,1521.81 1365.94,1480.16 1334.8,1443.61C1295.62,1397.62 1261.35,1385.98 1224.87,1405.84C1177.46,1431.65 1156.43,1486.06 1173.78,1538.99C1188.44,1583.72 1221.78,1611.47 1261.32,1632.98C1332.34,1671.61 1410.59,1680.27 1489.21,1688.17ZM1469.2,1037.05C1463.24,1027.47 1471.55,1017.4 1476.13,1008.31C1487.85,985.077 1507.85,968.982 1528.81,943.723C1550.69,1059.86 1577.36,1165.75 1620.47,1266.86C1650.6,1337.54 1694.19,1396.95 1762.98,1434.84C1859.63,1488.07 1974.61,1434.04 1995.83,1325.49C2000.89,1299.65 1996.34,1277.15 1971.7,1259.47C1967.56,1267.4 1964.37,1274.17 1960.61,1280.6C1950.4,1298.08 1935.05,1305.7 1915.08,1302.43C1892.82,1298.79 1881.81,1283.71 1878.71,1262.73C1873.8,1229.46 1888.44,1204.17 1915.86,1187.79C1946.93,1169.23 1979.69,1166.45 2009.58,1191.39C2059.94,1233.42 2063.82,1289.85 2050.7,1347.35C2010.72,1522.44 1820.71,1588.18 1677.38,1478.17C1586.53,1408.44 1543.9,1309.98 1512.73,1204.45C1496.4,1149.16 1501.19,1088.49 1469.2,1037.05ZM1806.18,1752.61C1821.35,1752.14 1830.56,1764.61 1834.95,1779.75C1850.88,1834.79 1824.14,1866.96 1765.42,1863.16C1757.75,1862.66 1749.94,1862.75 1742.3,1863.56C1680.47,1870.08 1651.31,1832.35 1670.76,1773.01C1680.89,1742.13 1704.63,1722.52 1730.6,1697.49C1687.57,1691.72 1649.57,1690.64 1613.45,1676.79C1613.45,1676.79 1519.71,1628.01 1469.03,1536.82C1433.21,1467.86 1426.24,1394.13 1433.5,1318.23C1434.47,1308.12 1437.04,1297.67 1441.3,1288.5C1447.61,1274.9 1458.3,1264.49 1474.8,1267.92C1492.47,1271.6 1489.56,1286.68 1488.56,1299.28C1484.94,1344.75 1486.31,1389.91 1499.39,1433.82C1542.42,1578.27 1687.06,1641.29 1840.69,1582.93C1890.95,1563.84 1934.69,1534.51 1973.98,1498.07C1982.11,1490.53 1991.67,1477.26 2002.91,1485.72C2012.79,1493.16 2006.03,1507.23 2002.21,1518.27C1996.62,1534.45 1987.71,1548.33 1975.34,1560.27C1939.84,1594.52 1903.8,1630.78 1858.01,1647.99C1810.93,1665.68 1785.86,1703.72 1754.4,1736.21C1731.58,1759.79 1737.59,1769.29 1789,1797.62C1790.19,1792.33 1791.67,1787.57 1792.29,1782.71C1793.79,1770.95 1787.03,1753.2 1806.18,1752.61ZM2262.16,1394.55C2297.8,1465.2 2307.1,1540.46 2279.58,1615.85C2244.25,1712.62 2158.93,1739.73 2069.27,1757.77C2051.74,1761.29 2033.27,1760.19 2015.23,1761.23C1962.9,1760.63 1912.49,1750.94 1864.85,1729.37C1852.72,1723.88 1833.34,1716.81 1839.23,1701.07C1844.06,1688.15 1861.86,1696.47 1873.63,1699.9C1957.34,1724.32 2033.74,1705.92 2107.08,1662.87C2191.7,1613.21 2191.78,1464.11 2144.32,1401.98C2134.69,1389.38 2121.85,1380.83 2105.71,1378.09C2088.97,1375.26 2074.45,1368.11 2077.05,1348.64C2079.47,1330.47 2095.71,1325.87 2111.5,1322.94C2170.54,1312 2234.75,1340.21 2262.16,1394.55ZM1169.03,759.75C1159.06,707.469 1148.18,655.98 1122.83,608.526C1118.25,599.958 1105.65,586.595 1128.85,584.482C1193.05,578.634 1253.55,547.954 1319.68,555.561C1380.65,562.574 1435.57,579.739 1459.46,647.62C1394.3,596.525 1327.68,599.788 1257.85,632.678C1234.36,643.739 1228.91,655.103 1239.04,679.786C1262.56,737.079 1282.43,795.86 1305.18,853.481C1312.71,872.538 1323.2,890.798 1334.67,907.856C1373.7,965.918 1415.19,973.299 1472.39,934.031C1483.79,926.205 1492.82,913.988 1508.98,913.038C1516.24,928.564 1504.95,937.392 1496.66,946.08C1430.62,1015.3 1319.84,1014.5 1253.92,943.884C1205.51,892.029 1182.01,827.778 1169.03,759.75ZM1864.83,659.156C1873.72,597.67 1930.39,557.483 1997.23,557.889C2060.95,558.277 2120.67,584.155 2183.7,590.076C2200.54,591.658 2195.68,603.698 2192.58,613.248C2169.45,684.569 2155.92,758.088 2141.69,831.484C2136.51,858.197 2126.41,883.477 2112.94,907.147C2063.21,994.563 1957.6,1012.76 1881.04,947.408C1871.15,938.963 1864.11,929.374 1863.07,914.868C1881.78,913.29 1893.08,925.956 1907.18,930.799C1962.14,949.671 2007.07,936.89 2034.45,888.992C2074.05,819.738 2079.58,742.016 2085.22,664.65C2086.03,653.626 2081.8,647.889 2070.48,646.74C2064.13,646.096 2057.89,643.929 2051.72,642.081C1988.48,623.163 1924.48,583.324 1864.83,659.156ZM1253.54,1076.98C1229.26,1081.76 1230.25,1108.74 1226.24,1127.98C1218.43,1165.47 1238.01,1204.59 1265.44,1211.39C1295.26,1218.78 1327.83,1197.31 1340.48,1159.34C1349.41,1132.51 1355.48,1104.71 1362.53,1077.27C1366.51,1061.74 1373.29,1047.81 1387.31,1039.51C1391.95,1036.77 1399.27,1038.56 1405.37,1038.28C1405.43,1043.05 1406.99,1048.44 1405.31,1052.48C1392.44,1083.39 1403.62,1113.6 1407.11,1144.06C1416.42,1225.25 1359.14,1294.63 1280.94,1294.41C1251.58,1295.98 1227.91,1280.99 1210.84,1256.61C1171.69,1200.71 1153.39,1138.68 1162.21,1070.16C1164.51,1052.26 1170.15,1035.06 1181.12,1019.97C1208.95,981.697 1239.77,977.122 1276.32,1007.35C1306.55,1032.35 1324.64,1064.14 1325.35,1104.25C1325.53,1114.21 1327.67,1126.51 1314.18,1129.76C1302.16,1132.65 1296.2,1124.94 1291.08,1114.36C1282.99,1097.65 1277.75,1072.22 1253.54,1076.98ZM1426.11,534.972C1417.54,532.642 1406.57,531.921 1403.87,521.882C1400.7,510.106 1410.46,503.132 1418.29,496.703C1459.42,462.919 1508.98,448.638 1559.43,436.636C1674.82,409.182 1784.85,424.304 1890.12,478.089C1906.99,486.704 1921.16,496.777 1923.55,520.372C1914.77,542.39 1897.36,536.583 1880.74,528.63C1838.65,508.495 1795.62,491.767 1749.1,484.891C1660.35,471.772 1576.9,490.333 1497.2,528.053C1473.43,539.303 1450.62,541.64 1426.11,534.972ZM1482.04,428.11C1469.76,433.624 1454.81,450.747 1441.85,429.735C1430.57,411.44 1440.21,395.004 1451.36,379.98C1457.05,372.303 1465.78,369.823 1474.49,366.883C1597.18,325.469 1719.77,320.691 1842.71,366.128C1863.69,373.88 1879.4,384.746 1882.75,409.561C1879.98,429.044 1867.96,434.165 1849.77,427.947C1824.14,419.188 1799.14,408.247 1773.08,401.194C1672.92,374.092 1576.12,385.846 1482.04,428.11ZM2139.77,964.639C2143.72,955.428 2152.88,956.858 2158.69,963.683C2188.63,998.797 2225.37,1028.74 2244.11,1072.43C2248.56,1082.79 2250.91,1094.82 2250.9,1106.08C2250.89,1115.9 2249.27,1129.95 2242.88,1134.59C2232.15,1142.38 2226.32,1127.37 2218.58,1121.72C2215.48,1119.45 2213,1116.28 2209.81,1114.18C2198.43,1106.72 2187.14,1090.8 2172.99,1100.67C2156.86,1111.93 2170.01,1128.78 2172.75,1143.14C2175.69,1158.54 2199.43,1174.19 2184.58,1186.86C2168.12,1200.92 2148.84,1181.23 2132.6,1172.9C2105.69,1159.09 2082.13,1140.89 2081.23,1099.66C2086.81,1053.29 2119.67,1011.58 2139.77,964.639ZM1865.59,1021.37C1855.54,1026.31 1849.9,1035.18 1847.16,1045.24C1824.05,1130.25 1822.84,1213.74 1866.96,1293.31C1876.29,1310.13 1885.75,1327.31 1904.39,1336.56C1910.67,1339.67 1920.72,1342.58 1915.25,1352.73C1911.13,1360.37 1901.77,1361.66 1894.6,1358.47C1882.95,1353.29 1871.29,1347.18 1861.33,1339.31C1798.73,1289.8 1783.19,1220.67 1781.54,1129.83C1787.37,1086.59 1795.24,1027.73 1803.32,968.897C1804.92,957.28 1806.69,944.489 1820.99,942.047C1835.02,939.65 1841.64,950.22 1846.73,961.091C1850.78,969.741 1857.67,975.054 1865.44,979.985C1886.79,993.532 1893.83,1007.48 1865.59,1021.37ZM1643.34,968.864C1642.72,953.972 1643.39,937.258 1661.8,936.23C1686.14,934.87 1681.62,955.43 1680.77,969.968C1676,1051.4 1674.93,1132.18 1696.93,1212.14C1723.81,1309.85 1779.23,1377.13 1881.97,1398.94C1889.6,1400.56 1900.81,1397.88 1904.78,1413.68C1883.63,1422.5 1862.78,1418.08 1842.25,1412.77C1730.04,1383.73 1659.78,1288.08 1651.04,1150.71C1647.19,1090.18 1645.86,1029.48 1643.34,968.864ZM1570.9,290.42C1552.57,294.446 1548.2,286.555 1550.78,269.513C1555.89,235.608 1604.82,179.055 1637.53,171.266C1642.04,170.19 1648.14,170.318 1651.96,172.542C1696.87,198.696 1736.76,229.304 1751.74,290.265C1687.46,270.08 1629.09,277.638 1570.9,290.42ZM2231.53,1194.64C2246.43,1182.74 2261.14,1153.29 2281.12,1172.63C2295.99,1187.02 2269.57,1205.41 2260.31,1220.77C2231.84,1267.95 2197.53,1306.57 2133.6,1296.01C2108.5,1291.86 2094.43,1279.45 2089.5,1254.71C2084.98,1232.02 2077.74,1210.11 2061.34,1187.16C2089.1,1181.96 2110.22,1181.73 2129.63,1196.33C2170.05,1226.74 2192.58,1225.75 2231.53,1194.64ZM1554.71,729.785C1579.82,732.176 1598.66,754.635 1612.88,776.917C1615.73,781.375 1617.13,786.336 1612.66,790.908C1608.14,795.524 1601.9,795.144 1599.38,790.718C1574.56,747.115 1529.18,737.924 1487.46,722.132C1478.5,718.742 1469.37,712.327 1474.37,691.108C1499.27,715.749 1523.62,726.824 1554.71,729.785ZM1703.82,699.105C1722.37,686.162 1716.75,668.071 1714.78,650.387C1713.18,636.029 1706.42,618.943 1735.73,611.76C1727.96,636.465 1734.56,656.079 1736.31,676.06C1737.72,692.104 1735.2,706.877 1720.69,716.613C1712.72,721.96 1702.8,724.066 1696.12,716.457C1688.7,708.007 1697.71,703.372 1703.82,699.105ZM1760.69,814.922C1773.71,783.27 1799.56,774.829 1828.24,767.39C1819.77,804.219 1805.69,830.25 1760.69,814.922ZM1586.1,812.394C1543.53,836.224 1526.66,807.452 1509.09,775.322C1540.48,780.438 1569.94,782.893 1586.1,812.394ZM1726.53,773.961C1747.13,748.676 1765.5,718.893 1817.25,729.009C1779.98,740.754 1759.54,759.285 1744.61,783.987C1740.52,790.749 1735.16,798.532 1726.59,793.826C1717.43,788.796 1721.71,779.869 1726.53,773.961ZM1603.43,609.313C1619.61,647.696 1601.28,689.228 1634.67,714.699C1593.65,711.48 1586.41,685.415 1603.43,609.313ZM1675.18,687.679C1670.51,696.117 1662.98,695.866 1656.73,688.638C1638.73,667.815 1649.55,648.656 1661.27,627.336C1680.65,646.741 1687.31,665.718 1675.18,687.679Z" style="fill:rgb(255,0,0);"/>
    </g>
</svg>
